<svg width="1200" height="318" viewBox="0 0 1200 318" fill="none" xmlns="http://www.w3.org/2000/svg">
<path d="M178.421 112.155V118.77H145.961V112.155C145.961 110.344 145.313 108.798 144 107.501C142.687 106.188 141.141 105.54 139.33 105.54H40.1551C38.3435 105.54 36.7978 106.188 35.4848 107.501C34.1717 108.798 33.5235 110.36 33.5235 112.155V137.402C33.5235 139.213 34.1717 140.759 35.4848 142.072C36.7812 143.368 38.3435 144.017 40.1551 144.017H139.346C150.166 144.017 159.391 147.823 167.003 155.435C174.615 163.047 178.421 172.272 178.421 183.091V208.338C178.421 219.158 174.615 228.382 167.003 235.994C159.391 243.607 150.166 247.413 139.346 247.413H40.1551C29.3352 247.413 20.1108 243.607 12.4986 235.994C4.88642 228.382 1.08033 219.158 1.08033 208.338V201.723H33.5402V208.338C33.5402 210.15 34.1884 211.695 35.5014 212.992C36.7978 214.305 38.3601 214.953 40.1717 214.953H139.363C141.175 214.953 142.72 214.305 144.033 212.992C145.33 211.695 145.994 210.133 145.994 208.338V183.091C145.994 181.296 145.346 179.734 144.033 178.438C142.72 177.141 141.175 176.476 139.363 176.476H40.1551C29.3352 176.476 20.1108 172.67 12.4986 165.058C4.88642 157.446 1.08033 148.222 1.08033 137.402V112.155C1.08033 101.335 4.8698 92.1108 12.4986 84.4986C20.1108 76.8864 29.3352 73.0804 40.1551 73.0804H139.346C150.166 73.0804 159.391 76.8864 167.003 84.4986C174.615 92.1274 178.421 101.335 178.421 112.155Z" fill="black"/>
<path d="M347.352 73.0804C358.172 73.0804 367.38 76.8864 375.008 84.4986C382.621 92.1108 386.427 101.335 386.427 112.155V208.338C386.427 219.158 382.621 228.382 375.008 235.994C367.396 243.607 358.172 247.413 347.352 247.413H241.546V316.554H209.086V73.0804H347.352ZM353.967 208.355V112.155C353.967 110.344 353.319 108.798 352.006 107.501C350.709 106.188 349.147 105.54 347.352 105.54H248.161C246.366 105.54 244.803 106.188 243.49 107.501C242.194 108.798 241.529 110.36 241.529 112.155V208.338C241.529 210.15 242.177 211.695 243.49 212.992C244.803 214.305 246.349 214.953 248.161 214.953H347.352C349.147 214.953 350.709 214.305 352.006 212.992C353.302 211.712 353.967 210.15 353.967 208.355Z" fill="black"/>
<path d="M546.332 73.0804C557.152 73.0804 566.36 76.8864 573.989 84.4986C581.601 92.1108 585.407 101.335 585.407 112.155V247.413H447.141C436.321 247.413 427.114 243.607 419.485 235.994C411.873 228.382 408.05 219.158 408.05 208.338V144.017H552.947V112.155C552.947 110.344 552.299 108.798 550.986 107.501C549.673 106.188 548.127 105.54 546.316 105.54H408.05V73.0804H546.332ZM552.947 214.953V176.476H440.526V208.338C440.526 210.15 441.175 211.695 442.488 212.992C443.784 214.305 445.346 214.953 447.141 214.953H552.947Z" fill="black"/>
<path d="M650.942 214.953H789.208V247.413H650.942C640.122 247.413 630.898 243.607 623.285 235.994C615.673 228.382 611.867 219.158 611.867 208.338V112.155C611.867 101.335 615.673 92.1108 623.285 84.4986C630.898 76.8864 640.122 73.0804 650.942 73.0804H788.609V105.54H650.942C649.13 105.54 647.585 106.188 646.271 107.501C644.975 108.798 644.31 110.36 644.31 112.155V208.338C644.31 210.15 644.958 211.695 646.271 212.992C647.568 214.305 649.13 214.953 650.942 214.953Z" fill="black"/>
<path d="M954.532 73.0804C965.352 73.0804 974.56 76.8864 982.188 84.4986C989.801 92.1108 993.607 101.335 993.607 112.155V176.476H848.709V208.338C848.709 210.15 849.357 211.695 850.67 212.992C851.967 214.305 853.529 214.953 855.341 214.953H993.607V247.413H855.341C844.521 247.413 835.296 243.607 827.684 235.994C820.072 228.382 816.266 219.158 816.266 208.338V112.155C816.266 101.335 820.072 92.1108 827.684 84.4986C835.296 76.8864 844.521 73.0804 855.341 73.0804H954.532ZM961.147 144.017V112.155C961.147 110.344 960.499 108.798 959.186 107.501C957.889 106.188 956.327 105.54 954.532 105.54H855.341C853.529 105.54 851.983 106.188 850.67 107.501C849.374 108.798 848.709 110.36 848.709 112.155V144.017H961.147Z" fill="black"/>
<path d="M1053.86 31.8948H1023.84V247.429H1053.86V31.8948Z" fill="black"/>
<path d="M1199.34 1.86151H649.994V31.8781H1199.34V1.86151Z" fill="black"/>
<path d="M178.421 112.155V118.77H145.961V112.155C145.961 110.344 145.313 108.798 144 107.501C142.687 106.188 141.141 105.54 139.33 105.54H40.1551C38.3435 105.54 36.7978 106.188 35.4848 107.501C34.1717 108.798 33.5235 110.36 33.5235 112.155V137.402C33.5235 139.213 34.1717 140.759 35.4848 142.072C36.7812 143.368 38.3435 144.017 40.1551 144.017H139.346C150.166 144.017 159.391 147.823 167.003 155.435C174.615 163.047 178.421 172.272 178.421 183.091V208.338C178.421 219.158 174.615 228.382 167.003 235.994C159.391 243.607 150.166 247.413 139.346 247.413H40.1551C29.3352 247.413 20.1108 243.607 12.4986 235.994C4.88642 228.382 1.08033 219.158 1.08033 208.338V201.723H33.5402V208.338C33.5402 210.15 34.1884 211.695 35.5014 212.992C36.7978 214.305 38.3601 214.953 40.1717 214.953H139.363C141.175 214.953 142.72 214.305 144.033 212.992C145.33 211.695 145.994 210.133 145.994 208.338V183.091C145.994 181.296 145.346 179.734 144.033 178.438C142.72 177.141 141.175 176.476 139.363 176.476H40.1551C29.3352 176.476 20.1108 172.67 12.4986 165.058C4.88642 157.446 1.08033 148.222 1.08033 137.402V112.155C1.08033 101.335 4.8698 92.1108 12.4986 84.4986C20.1108 76.8864 29.3352 73.0804 40.1551 73.0804H139.346C150.166 73.0804 159.391 76.8864 167.003 84.4986C174.615 92.1274 178.421 101.335 178.421 112.155Z" stroke="black" stroke-width="0.25" stroke-miterlimit="10"/>
<path d="M347.352 73.0804C358.172 73.0804 367.38 76.8864 375.008 84.4986C382.621 92.1108 386.427 101.335 386.427 112.155V208.338C386.427 219.158 382.621 228.382 375.008 235.994C367.396 243.607 358.172 247.413 347.352 247.413H241.546V316.554H209.086V73.0804H347.352ZM353.967 208.355V112.155C353.967 110.344 353.319 108.798 352.006 107.501C350.709 106.188 349.147 105.54 347.352 105.54H248.161C246.366 105.54 244.803 106.188 243.49 107.501C242.194 108.798 241.529 110.36 241.529 112.155V208.338C241.529 210.15 242.177 211.695 243.49 212.992C244.803 214.305 246.349 214.953 248.161 214.953H347.352C349.147 214.953 350.709 214.305 352.006 212.992C353.302 211.712 353.967 210.15 353.967 208.355Z" stroke="black" stroke-width="0.25" stroke-miterlimit="10"/>
<path d="M546.332 73.0804C557.152 73.0804 566.36 76.8864 573.989 84.4986C581.601 92.1108 585.407 101.335 585.407 112.155V247.413H447.141C436.321 247.413 427.114 243.607 419.485 235.994C411.873 228.382 408.05 219.158 408.05 208.338V144.017H552.947V112.155C552.947 110.344 552.299 108.798 550.986 107.501C549.673 106.188 548.127 105.54 546.316 105.54H408.05V73.0804H546.332ZM552.947 214.953V176.476H440.526V208.338C440.526 210.15 441.175 211.695 442.488 212.992C443.784 214.305 445.346 214.953 447.141 214.953H552.947Z" stroke="black" stroke-width="0.25" stroke-miterlimit="10"/>
<path d="M650.942 214.953H789.208V247.413H650.942C640.122 247.413 630.898 243.607 623.285 235.994C615.673 228.382 611.867 219.158 611.867 208.338V112.155C611.867 101.335 615.673 92.1108 623.285 84.4986C630.898 76.8864 640.122 73.0804 650.942 73.0804H788.609V105.54H650.942C649.13 105.54 647.585 106.188 646.271 107.501C644.975 108.798 644.31 110.36 644.31 112.155V208.338C644.31 210.15 644.958 211.695 646.271 212.992C647.568 214.305 649.13 214.953 650.942 214.953Z" stroke="black" stroke-width="0.25" stroke-miterlimit="10"/>
<path d="M954.532 73.0804C965.352 73.0804 974.56 76.8864 982.188 84.4986C989.801 92.1108 993.607 101.335 993.607 112.155V176.476H848.709V208.338C848.709 210.15 849.357 211.695 850.67 212.992C851.967 214.305 853.529 214.953 855.341 214.953H993.607V247.413H855.341C844.521 247.413 835.296 243.607 827.684 235.994C820.072 228.382 816.266 219.158 816.266 208.338V112.155C816.266 101.335 820.072 92.1108 827.684 84.4986C835.296 76.8864 844.521 73.0804 855.341 73.0804H954.532ZM961.147 144.017V112.155C961.147 110.344 960.499 108.798 959.186 107.501C957.889 106.188 956.327 105.54 954.532 105.54H855.341C853.529 105.54 851.983 106.188 850.67 107.501C849.374 108.798 848.709 110.36 848.709 112.155V144.017H961.147Z" stroke="black" stroke-width="0.25" stroke-miterlimit="10"/>
<path d="M1053.86 31.8948H1023.84V247.429H1053.86V31.8948Z" stroke="black" stroke-width="0.25" stroke-miterlimit="10"/>
<path d="M1199.34 1.86151H649.994V31.8781H1199.34V1.86151Z" stroke="black" stroke-width="0.25" stroke-miterlimit="10"/>
</svg>
